<svg xmlns="http://www.w3.org/2000/svg" xmlns:xlink="http://www.w3.org/1999/xlink" width="5000" height="5000" viewBox="0 0 5000 5000">
  <defs>
    <style>
      .cls-1 {
        fill-rule: evenodd;
        fill: url(#linear-gradient);
      }
    </style>
    <linearGradient id="linear-gradient" x1="907.719" y1="2500.406" x2="4068" y2="2500.406" gradientUnits="userSpaceOnUse">
      <stop offset="0" stop-color="#000"/>
      <stop offset="1" stop-color="#000"/>
    </linearGradient>
  </defs>
  <path id="Verloopvulling_1" data-name="Verloopvulling 1" class="cls-1" d="M2384,898c43.04-.277,88.1-1,127,5l59,2h65l143,7,104,7c83.66,13.958,174.49,19.181,255,35,139.17,27.344,274.67,39.048,366,112,29.81,23.81,54.95,58.68,65,102,9.68,41.71,5.57,103.95-1,146q-1.5,70.995-3,142c0,33.84-.91,66.91,9,91,22.01,53.52,76.24,74.75,123,104,49.01,30.66,100.2,74.5,124,130,16.89,39.4,15,96.52,15,153v251c0,43.07-5.13,95.19,4,132,13.89,55.98,57.89,90.7,97,122,41.4,33.13,82.87,79.25,102,134,22.15,63.41,9.39,148.06,21,224q3.495,72,7,144,1.005,55.5,2,111c0,80.69-3.3,154.3-15,223q-2.505,37.5-5,75v79c0,97.08,9.49,214.31-21,282-34.62,76.86-135.72,151.45-214,186-112.94,49.85-236.67,84.36-369,117l-226,42c-72.67,14.31-149.57,14.79-225,27l-218,15-69,3q-60.495.495-121,1-72.99.495-146,1l-188-3q-24.495-.495-49-1-90.495-5.505-181-11-81.99-7.995-164-16c-106.78-18.73-211.72-27.57-311-52-233.08-57.36-474.17-106.31-595-275-16.024-22.37-29.458-48.43-37-79-10.272-41.63,1.351-92.75-6-141V2729c0-57.33-3.333-119.17,13-161,20.9-53.54,62.037-98.07,104-131,37.65-29.54,85.51-61.21,98-115,9.67-41.66-2-90.89-2-137-0.01-86.14-3.16-172.68,9-251,9.86-63.54,2.63-109.39,25-159,24.7-54.8,80.25-98.67,130-129,40.76-24.85,80.38-43.29,105-84,22.01-36.38,15-108.66,15-166q1.005-59.49,2-119c6.91-44.83-2.74-86.73,9-125,7.31-23.81,21.05-43.54,35-61,48.7-60.95,131-83.76,219-106,76.21-19.262,158.79-28.059,242-42l123-9,137-24Zm696,496c-30.98,20.15-56.19,36.04-77,66-27.29,39.29-53.24,135.17-129,121-38.85-7.27-62.15-53.32-90-57-10.29,3.62-24.29,6.84-30,15-10.97,15.68-6.32,44.07-10,67-10.43,65.07-4.64,164.57-63,179-26.23,6.48-47.58-3.62-58-14-37.18-37.05-28.46-85.5-16-143,2.87-13.23,7.78-30.52,5-46a145.38,145.38,0,0,0-68-99c-29.71-17.93-58.58,6.99-73,28-26.41,38.48-60.5,151.59-131,138-27.54-5.31-56.85-33.16-67-56-8.31-18.71-10.57-41.17-21-57-9.34-2.62-17.78-4.31-28-2-20.51,31.67-29.51,75.04-82,75-17.45-.01-27.26-2.7-37-10q-11.505-12-23-24-6.495-18-13-36-13.005-.495-26-1c-9.91,21.82-14.62,49.5-33,63-36.44-.01-65.31,3.63-79-19-19.76-32.66-2.89-90.13-49-96-12.47,8.22-24.23,12.22-32,25q-10.995,32.49-22,65c-12.19,28.37-54.5,74.73-103,55-24.89-10.13-40.3-32.29-65-44-43.42,14.86-36.6,40.2-64,67-6.65,6.5-15.49,13.66-26,16h-11q-19.005,19.5-38,39c-40.63,58.24,11.45,128.53,50,151,30.27,17.64,67.41,25.13,104,36,89.21,26.5,190.38,34.55,291,52q55.995,5.505,112,11,80.49,4.995,161,10,133.485,3.495,267,7l229-6,137-9q58.995-5.505,118-11c69.23-11.9,140.81-16.75,206-31,73.86-16.14,166.46-29.24,219-67,63.15-45.38,51-136.54,51-242,0-64.79,7.41-115.82-44-131-11.5-3.4-32.88,5.26-48,2-21.45-4.62-40.73-39.61-67-29-38.07,15.38-48.79,86.61-113,70C3122.21,1503.43,3145.64,1400.2,3080,1394Zm463,743c-28.73,24-40.17,120.92-75,132h-26c-11.87,0-23.61.62-32-3-42.46-18.32-17.38-136.9-71-121-14.45,4.28-20.76,28.89-27,42-21.3,44.71-44.58,149.29-121,133-52.08-11.1-83.37-89.49-113-127-10.95-13.86-35.57-39.31-59-30-66.11,26.27-76.73,110.41-99,181-9.99,31.67-24.27,63.23-37,92-14.01,31.66-39.45,88.99-95,74-25.12-6.78-44.76-35.26-35-71,16.83-61.6,62.64-113.21,26-185-6.3-12.35-15.03-25.95-30-29-26.96-5.49-40.83,35.29-48,53-21.31,52.65-31.35,129.74-94,141-65.17,11.72-94.54-82.91-112-124-8.49-19.98-16.01-63.64-50-50-18.11,7.27-20.96,32.62-27,52q-10.005,36-20,72-6.495,30-13,60c-9.73,24.06-42.03,52.3-86,41-52.3-13.44-65.42-147.83-86-200-10.64-26.98-18.75-59.4-53-62-8.89,5.45-18.77,8.04-25,16-32.47,41.49-30.16,118.03-82,140-28.25,11.97-54.93-2.95-68-16q-10.995-12-22-24c-19.21-32.89-31.39-124.46-70-132-20.86-4.07-31.49,21.85-36,37-13.47,45.27-19.57,106.91-50,136-30.67.09-60.11,3.7-73-14-15.8-21.69-.38-62.48-4-91-5.39-42.46-33.39-83.14-75-88-12.01-1.4-23.03,7.47-30,12-34.65,22.53-47.43,59.49-61,103-10.1,32.37-14.13,71.81-44,84q-15.495,1.005-31,2c-55.68-.02-57.65-46.73-73-86-6.17-15.77-22.28-48.03-47-39-30.79,11.24-36.55,50.95-55,75l-26,23c-19.89,23.09-41.71,53.67-51,86v65c0,120.02,22.87,155.11,98,200,116.59,69.67,268.49,94.03,422,127,90.9,19.52,190.32,23.19,287,39q43.995,3.495,88,7l206,9,117,3h65l124-3,195-9,106-9c91.36-14.98,184.37-18.63,270-37,134.13-28.77,258.42-52.63,369-101,42.27-18.49,87.99-40.13,115-74,49.22-61.71,38-162.63,38-271,0-66.16.16-125.9-18-172-33.25-.22-52.46,11.02-91,11q-10.995-.495-22-1C3571.12,2199.68,3596.76,2136.69,3543,2137ZM1217,2999q-4.995,1.995-10,4c-9.98,33.04-27.51,128.66-54,141q-16.995.495-34,1c-48.53,0-41.93-26.18-59-56l-26-3c-9.36,31.88-21.91,63.33-28,99v298c0,69.85-3.74,141.43,22,185,87.73,148.51,375.64,209.68,574,256,91.4,21.34,186.61,30.89,284,48l144,15,196,12q66.99,2.505,134,5h262l198-9q99.495-8.505,199-17c124.08-20.89,244.81-30.72,359-59,154.55-38.27,307.12-69.66,429-141,61.37-35.92,120.8-78.91,139-158,8.41-36.57,4-85.57,4-128q-0.495-49.995-1-100c-6.72-24.39-35.29-72.5-53-86-11.84-9.02-24.11-16.22-32-29-21.23-34.38-38.08-124.97-85-128-80.91,33.62-32.57,218.87-155,192-30.53-6.7-36.19-39.44-45-69-20.1-67.43-47.52-247.42-144-206-43.37,18.62-65.07,53.86-73,109q2.505,33.99,5,68c6.06,36.3-.72,105.03-11,129-5.7,13.29-24.84,32.31-40,36-109.45,26.67-96.84-146.72-110-225-5.18-30.83,5.52-117.25-41-98-18.1,8.51-25.17,37.91-33,57-24.3,59.26-38.18,173.8-105,187-88.17,17.42-95.74-127.68-122-180-12.33-24.56-32.43-62.42-66-41-21.72,13.86-28.74,43.61-38,70-21.3,60.7-30.96,134.12-51,199-9.75,31.58-28.47,79.96-59,88-30.12,7.93-54.17-6.19-66-18-6.99-6.98-16.06-15.3-20-25q-6.495-33.495-13-67c-11.07-47.46-20.37-96.71-34-141-7.29-23.68-11.1-62.14-33-71-37.32-15.1-45.91,43.24-54,66-20.78,58.49-51.63,174.53-115,186-44.28,8.02-71.48-29.63-83-56-17.98-41.16-67.88-155.44-113-161q-7.005,3-14,6c-28.11,14.48-30.77,33.82-37,71-13.56,80.99,33.31,196.71-21,251-12.01,12.01-38.81,29.81-67,18-51.21-21.44-93.88-149.2-80-237,4.6-29.1,9.29-68.72,3-99-10.1-48.62-36.04-83.31-73-105-41.12-24.14-77.32,4.36-97,31-20.02,27.1-26.57,63.35-40,98-16.71,43.1-34.19,83.2-64,113-8.39,8.39-17.85,19.78-31,23-38.91,9.53-62.14-17.64-77-34-17.85-19.65-19.5-58.41-28-87-18.96-63.79-34.08-137.69-66-191-9.62-1.79-25.95-1.99-31,4-7.02,8.33-5.74,22.9-8,36-7.78,45.02-1.07,108.78-33,130-5.03,3.34-56.55,7.92-65,3-19.13-11.14-25.96-42.62-35-64q-30.495-72.495-61-145Q1226,2999.505,1217,2999Z"/>
  <filter id='shadow' color-interpolation-filters="sRGB">
    <feDropShadow dx="2" dy="2" stdDeviation="50" flood-opacity="0.5"/>
  </filter>
</svg>
